<?xml version="1.0" standalone="no"?>
<!DOCTYPE svg PUBLIC "-//W3C//DTD SVG 20010904//EN"
 "http://www.w3.org/TR/2001/REC-SVG-20010904/DTD/svg10.dtd">
<svg version="1.0" xmlns="http://www.w3.org/2000/svg"
 width="275.000000pt" height="81.000000pt" viewBox="0 0 275.000000 81.000000"
 preserveAspectRatio="xMidYMid meet">

<g transform="translate(0.000000,81.000000) scale(0.100000,-0.100000)"
fill="#000000" stroke="none">
<path d="M140 452 c-68 -33 -77 -116 -17 -152 17 -10 52 -24 78 -30 52 -13 74
-31 65 -55 -15 -40 -108 -36 -121 6 -7 20 -58 28 -69 11 -9 -15 28 -76 54 -89
54 -27 190 -6 190 29 0 6 11 -1 25 -16 29 -31 97 -37 127 -9 17 15 18 15 18 0
0 -13 9 -17 36 -17 l36 0 -4 101 c-3 96 -4 102 -31 125 -46 39 -139 31 -174
-15 -7 -9 -13 -19 -13 -23 0 -12 68 -10 75 2 10 17 62 12 69 -7 8 -21 -5 -29
-62 -37 -25 -3 -54 -13 -63 -22 -17 -15 -19 -15 -29 8 -14 31 -41 47 -110 68
-44 13 -56 21 -58 39 -6 43 60 57 93 21 11 -12 31 -20 52 -20 l33 0 -13 31
c-25 62 -116 87 -187 51z m350 -227 c0 -16 -35 -55 -49 -55 -43 0 -56 44 -18
60 35 14 67 12 67 -5z"/>
<path d="M1527 433 c-13 -12 -7 -41 10 -47 21 -9 46 16 37 37 -6 17 -35 23
-47 10z"/>
<path d="M1310 270 l0 -150 30 0 30 0 0 65 0 65 59 0 c55 0 59 2 63 25 5 25 4
25 -58 25 l-64 0 0 40 0 40 70 0 c63 0 70 2 70 20 0 19 -7 20 -100 20 l-100 0
0 -150z"/>
<path d="M570 255 l0 -125 35 0 35 0 0 83 c0 71 3 87 20 102 17 15 24 16 45 7
24 -11 25 -15 25 -102 l0 -90 35 0 c32 0 35 2 35 29 l0 29 29 -29 c25 -24 37
-29 81 -29 54 0 104 19 113 44 5 12 12 9 36 -14 25 -26 37 -30 84 -30 45 0 61
5 86 26 17 14 31 29 31 34 0 15 -55 19 -71 4 -22 -20 -63 -18 -82 4 -32 35
-21 42 68 42 l85 0 0 31 c0 69 -43 108 -117 109 -44 0 -56 -4 -81 -30 -16 -16
-32 -45 -36 -63 l-6 -34 -48 15 c-101 32 -111 41 -74 61 13 7 27 6 46 -5 64
-33 102 -6 50 35 -40 32 -126 29 -159 -4 -49 -48 -19 -105 64 -124 48 -10 67
-24 57 -40 -10 -16 -61 -13 -75 3 -8 10 -23 13 -47 9 l-34 -6 0 65 c0 86 -23
118 -82 118 -25 0 -49 -7 -60 -17 -17 -15 -18 -15 -18 0 0 13 -9 17 -35 17
l-35 0 0 -125z m614 59 c27 -26 18 -34 -39 -34 -59 0 -64 4 -38 32 20 22 56
23 77 2z"/>
<path d="M1520 235 l0 -115 30 0 30 0 0 115 0 115 -30 0 -30 0 0 -115z"/>
<path d="M1600 235 l0 -115 25 0 c24 0 25 2 25 73 0 86 13 110 55 105 l30 -3
3 -87 3 -88 29 0 c26 0 30 4 30 26 l0 27 25 -27 c28 -30 84 -36 105 -11 16 19
30 19 30 0 0 -9 9 -15 25 -15 25 0 25 1 25 84 0 100 -4 112 -41 131 -36 19
-72 19 -109 0 -37 -19 -39 -39 -5 -33 22 5 24 3 13 -11 -9 -11 -5 -10 9 3 28
23 73 15 73 -14 0 -14 -9 -21 -37 -25 -53 -8 -86 -26 -100 -55 -12 -23 -13
-19 -13 38 0 53 -4 67 -25 87 -30 30 -64 32 -99 4 l-26 -20 0 20 c0 16 -6 21
-25 21 l-25 0 0 -115z m350 -28 c0 -30 -18 -47 -51 -47 -50 0 -45 44 7 60 43
12 44 12 44 -13z"/>
<path d="M2030 234 l0 -115 28 3 c26 3 27 4 30 78 3 81 12 100 48 100 33 0 44
-28 44 -109 0 -69 1 -71 25 -71 23 0 24 4 27 63 l3 62 13 -42 c16 -55 53 -83
107 -83 32 0 48 6 69 26 14 15 26 33 26 40 0 19 -49 18 -56 -1 -8 -20 -40 -28
-63 -15 -26 13 -37 70 -20 101 22 44 49 50 76 19 19 -22 63 -27 63 -7 -1 17
-21 42 -47 55 -53 29 -125 2 -151 -56 l-17 -37 -3 32 c-6 62 -81 94 -122 53
-11 -11 -22 -20 -25 -20 -3 0 -5 9 -5 20 0 15 -7 20 -25 20 l-25 0 0 -116z"/>
<path d="M2508 335 c-37 -21 -48 -44 -48 -105 0 -44 5 -56 29 -81 24 -23 38
-29 74 -29 42 0 97 28 97 50 0 15 -43 19 -57 4 -20 -19 -57 -18 -76 4 -32 35
-21 42 64 42 l81 0 -7 38 c-3 20 -17 47 -29 60 -29 30 -91 38 -128 17z m83
-35 c10 -6 19 -20 19 -30 0 -17 -7 -20 -44 -20 -52 0 -65 13 -40 41 19 21 36
24 65 9z"/>
</g>
</svg>
